# xmcd
#
# Track frame offsets:
#	150
#	23624
#	46967
#	61184
#	84144
#	97729
#	114758
#	133876
#	162469
#	176548
#	197135
#	226702
#	243091
#	271784
#	288715
#
# Disc length: 4028 seconds
#
# Revision: 0
# Processed by: cddbd v1.5.2PL0 Copyright (c) Steve Scherf et al.
# Submitted via: EZCDAudioConverter 7.0.6.1
#
DISCID=b50fba0f
DTITLE=Fairport Convention - Come All Ye 6/7
DYEAR=1900
DGENRE=
TTITLE0=Polly On The Shore [Live At Fairfield Halls, UK, 1973]
TTITLE1=Furs And Feathers [Live At Fairfield Halls, UK, 1973]
TTITLE2=Tokyo [Live At Fairfield Halls, UK, 1973]
TTITLE3=Cell Song [Live At Fairfield Halls, UK, 1973]
TTITLE4=The Claw [Live At Fairfield Halls, UK, 1973]
TTITLE5=Far From Me [Live At Fairfield Halls, UK, 1973]
TTITLE6=Brilliancy Medley/Cherokee Shuffle [Live At Fairfield Halls, UK, 1973]
TTITLE7=Days Of 49 [Live At Fairfield Halls, UK, 1973]
TTITLE8=Fiddlestix (The Devil In The Kitchen) [Live At Fairfield Halls, UK, 19
TTITLE8=73]
TTITLE9=Dirty Linen [Live At Fairfield Halls, UK, 1973]
TTITLE10=Matthew, Mark, Luke And John [Live At Fairfield Halls, UK, 1973]
TTITLE11=Possibly Parsons Green [Live At Fairfield Halls, UK, 1973]
TTITLE12=Sir B. McKenzie [Live At Fairfield Halls, UK, 1973]
TTITLE13=Down In The Flood [Live At Fairfield Halls, UK, 1973]
TTITLE14=Something You've Got [Live At Fairfield Halls, UK, 1973]
EXTD=
EXTT0=
EXTT1=
EXTT2=
EXTT3=
EXTT4=
EXTT5=
EXTT6=
EXTT7=
EXTT8=
EXTT9=
EXTT10=
EXTT11=
EXTT12=
EXTT13=
EXTT14=
PLAYORDER=
